<?xml version="1.0" encoding="UTF-8"?>
<svg version="1.1" xmlns="http://www.w3.org/2000/svg" width="866" height="288">
<path d="M0 0 C0.61875 0.474375 1.2375 0.94875 1.875 1.4375 C2.535 0.4475 3.195 -0.5425 3.875 -1.5625 C6.2578125 -1.85546875 6.2578125 -1.85546875 9 -1.75 C9.91007812 -1.72292969 10.82015625 -1.69585937 11.7578125 -1.66796875 C12.45648438 -1.63316406 13.15515625 -1.59835938 13.875 -1.5625 C14.0023144 4.84190521 14.08956565 11.24598125 14.1496582 17.65136719 C14.17472256 19.82792354 14.20878331 22.00439639 14.25219727 24.18066406 C14.31320412 27.31856954 14.34129122 30.45535737 14.36328125 33.59375 C14.38908768 34.55865356 14.4148941 35.52355713 14.44148254 36.5177002 C14.44417517 43.07965551 13.10215956 47.36113406 8.875 52.4375 C3.96226111 56.88235899 -1.66077355 58.0071371 -8.125 58.4375 C-15.09332167 58.04249339 -19.89528296 56.01350241 -25.125 51.4375 C-27.25058324 48.38775014 -27.125 47.34498853 -27.125 43.4375 C-23.76845264 42.77922566 -20.5506286 42.28902074 -17.125 42.4375 C-15.41720027 44.06199243 -13.74949243 45.72970027 -12.125 47.4375 C-8.22086668 48.17306135 -4.65900421 47.94525271 -0.89453125 46.69921875 C1.08191359 45.56861809 1.08191359 45.56861809 1.484375 43.2734375 C1.55398438 42.05527344 1.55398438 42.05527344 1.625 40.8125 C1.68171875 39.99523437 1.7384375 39.17796875 1.796875 38.3359375 C1.82265625 37.70945313 1.8484375 37.08296875 1.875 36.4375 C1.215 36.911875 0.555 37.38625 -0.125 37.875 C-5.43879072 40.64259933 -10.01963282 41.00680503 -15.6875 39.375 C-21.16965325 37.25409788 -25.56600763 34.55010891 -28.2578125 29.17578125 C-30.59257146 22.47649541 -31.05685154 15.74701497 -28.109375 9.171875 C-25.13232828 4.08451668 -21.77890964 0.73359541 -16.4375 -1.875 C-10.68823444 -3.0682438 -5.26896186 -2.63448093 0 0 Z M-16.125 10.4375 C-18.6916288 14.66118038 -18.68394189 18.62200064 -18.125 23.4375 C-16.8780291 26.36788162 -15.90154345 27.85509241 -13.375 29.75 C-10.09356187 30.75266165 -7.54280831 30.79106638 -4.125 30.4375 C0.11528619 28.1787063 0.11528619 28.1787063 2.875 24.4375 C3.38624099 19.23289913 3.73632441 14.87304069 1 10.3125 C-2.33685464 7.36821649 -4.63575153 7.15408078 -9.08984375 7.21875 C-12.06274757 7.53829436 -13.83498159 8.55160248 -16.125 10.4375 Z " fill="#FAFBFB" transform="translate(406.125,124.5625)"/>
<path d="M0 0 C0.80308594 -0.02578125 1.60617187 -0.0515625 2.43359375 -0.078125 C3.48740234 0.08429688 3.48740234 0.08429688 4.5625 0.25 C5.2225 1.24 5.8825 2.23 6.5625 3.25 C7.38621094 2.52103516 7.38621094 2.52103516 8.2265625 1.77734375 C12.32449493 -0.90207361 16.83904414 -0.39751559 21.5625 0.25 C24.02316399 1.33269216 25.50558666 2.47104793 27.5625 4.25 C30.05611571 3.04618552 32.24393083 1.79571278 34.5625 0.25 C40.09227532 -0.43623474 45.02525339 -0.45120021 50.125 1.875 C54.72082993 6.35298814 55.93403833 10.77555581 56.14453125 17.07421875 C56.18900391 18.34974609 56.23347656 19.62527344 56.27929688 20.93945312 C56.31087891 22.25880859 56.34246094 23.57816406 56.375 24.9375 C56.42539423 26.28194035 56.47681728 27.62634256 56.52929688 28.97070312 C56.82491511 38.85637733 56.82491511 38.85637733 54.5625 42.25 C52.43359375 42.578125 52.43359375 42.578125 50 42.5 C49.19433594 42.48453125 48.38867188 42.4690625 47.55859375 42.453125 C45.5625 42.25 45.5625 42.25 44.5625 41.25 C44.49956996 39.62358732 44.5031609 37.99450268 44.53515625 36.3671875 C44.55352539 34.86285156 44.55352539 34.86285156 44.57226562 33.328125 C44.60703725 31.21607083 44.64600395 29.10408097 44.68945312 26.9921875 C44.75097781 21.31743976 44.49592837 16.60294287 42.5625 11.25 C39.5925 11.25 36.6225 11.25 33.5625 11.25 C31.56850059 15.23799882 31.28550398 16.97374453 31.18359375 21.29296875 C31.14943359 22.44861328 31.11527344 23.60425781 31.08007812 24.79492188 C31.05365234 25.99697266 31.02722656 27.19902344 31 28.4375 C30.94035941 30.82693041 30.87678026 33.21626694 30.80859375 35.60546875 C30.78466553 36.66403076 30.7607373 37.72259277 30.73608398 38.81323242 C30.5625 41.25 30.5625 41.25 29.5625 42.25 C28.04321962 42.32179964 26.52082518 42.33392007 25 42.3125 C24.17371094 42.30347656 23.34742188 42.29445312 22.49609375 42.28515625 C21.85800781 42.27355469 21.21992187 42.26195312 20.5625 42.25 C19.64695376 39.15257383 19.46851442 36.44567029 19.53515625 33.22265625 C19.55352539 31.78696289 19.55352539 31.78696289 19.57226562 30.32226562 C19.60735472 28.3195879 19.64640215 26.31697552 19.68945312 24.31445312 C19.70041016 23.35603516 19.71136719 22.39761719 19.72265625 21.41015625 C19.74791382 20.10510132 19.74791382 20.10510132 19.77368164 18.77368164 C19.53731163 15.94899167 18.73035522 13.81870548 17.5625 11.25 C16.10507537 11.16903197 14.64637193 11.11082226 13.1875 11.0625 C11.96933594 11.01029297 11.96933594 11.01029297 10.7265625 10.95703125 C10.01242187 11.05371094 9.29828125 11.15039062 8.5625 11.25 C6.23726742 14.73784888 6.27686691 16.28545056 6.18359375 20.4140625 C6.14943359 21.61804688 6.11527344 22.82203125 6.08007812 24.0625 C6.05365234 25.320625 6.02722656 26.57875 6 27.875 C5.94035761 30.36729052 5.87677811 32.85949105 5.80859375 35.3515625 C5.78466553 36.45838379 5.7607373 37.56520508 5.73608398 38.70556641 C5.5625 41.25 5.5625 41.25 4.5625 42.25 C3.06511876 42.3479057 1.56307108 42.37974864 0.0625 42.375 C-0.7521875 42.37757813 -1.566875 42.38015625 -2.40625 42.3828125 C-4.4375 42.25 -4.4375 42.25 -5.4375 41.25 C-5.53860353 38.3046443 -5.57719279 35.3832244 -5.5703125 32.4375 C-5.57126923 31.55344482 -5.57222595 30.66938965 -5.57321167 29.75854492 C-5.57389351 27.88557871 -5.57203893 26.01261014 -5.56787109 24.13964844 C-5.56252289 21.26231612 -5.56781593 18.38513992 -5.57421875 15.5078125 C-5.57355797 13.69270799 -5.57227681 11.87760357 -5.5703125 10.0625 C-5.57233673 9.19584717 -5.57436096 8.32919434 -5.57644653 7.4362793 C-5.54747622 0.10651154 -5.54747622 0.10651154 0 0 Z " fill="#1EAC91" transform="translate(749.4375,122.75)"/>
<path d="M0 0 C4.62 0 9.24 0 14 0 C18.50689922 10.78232851 22.9300913 21.59707612 27.32421875 32.42578125 C28.89080841 36.28577442 30.47004416 40.13922343 32.08203125 43.98046875 C32.37086182 44.6768042 32.65969238 45.37313965 32.95727539 46.09057617 C33.68959506 47.85450354 34.43035926 49.61491868 35.171875 51.375 C36 54 36 54 35 57 C31.37 57 27.74 57 24 57 C21.525 51.06 21.525 51.06 19 45 C15.844375 45.0309375 15.844375 45.0309375 12.625 45.0625 C6.6832533 45.06853836 0.89050811 44.76006556 -5 44 C-5.19335938 44.68707031 -5.38671875 45.37414062 -5.5859375 46.08203125 C-5.84632813 46.98308594 -6.10671875 47.88414062 -6.375 48.8125 C-6.63023437 49.70582031 -6.88546875 50.59914062 -7.1484375 51.51953125 C-8 54 -8 54 -10 57 C-12.6015625 57.29296875 -12.6015625 57.29296875 -15.625 57.1875 C-17.12933594 57.14689453 -17.12933594 57.14689453 -18.6640625 57.10546875 C-19.43492187 57.07066406 -20.20578125 57.03585938 -21 57 C-20.37630635 52.05241627 -18.88317866 47.67213011 -17.05078125 43.06640625 C-16.75568161 42.31141342 -16.46058197 41.55642059 -16.15653992 40.77854919 C-15.21396021 38.37102591 -14.26333084 35.96677478 -13.3125 33.5625 C-12.69283695 31.98262668 -12.07369191 30.40255009 -11.45507812 28.82226562 C-7.68150792 19.19691086 -3.84883001 9.59547021 0 0 Z M6 14 C3.69 20.6 1.38 27.2 -1 34 C4.28 34 9.56 34 15 34 C13.04068712 27.14240492 10.75665244 20.57678502 8 14 C7.34 14 6.68 14 6 14 Z " fill="#FAFAFB" transform="translate(319,108)"/>
<path d="M0 0 C3.75939575 2.26517503 6.11131147 4.68339045 8.5 8.375 C9.3125 12.25 9.3125 12.25 9.5 15.375 C6.2 15.705 2.9 16.035 -0.5 16.375 C-0.95375 15.405625 -1.4075 14.43625 -1.875 13.4375 C-3.38546486 11.13920275 -4.17653368 10.47010555 -6.8515625 9.68359375 C-12.99007478 8.94619317 -12.99007478 8.94619317 -18.5 11.375 C-19.31870185 14.93706661 -19.31870185 14.93706661 -19.5 18.375 C-14.64277367 20.06603435 -9.80456856 21.56790208 -4.8125 22.8125 C1.02161074 24.39325068 4.87044343 26.43714894 8.8125 31.125 C11.16533385 35.65638371 12.31891385 39.46031322 10.90625 44.48828125 C8.67598809 49.59288933 5.45526517 52.84303337 0.5 55.375 C-6.29848635 57.72138025 -16.63647474 57.75868008 -23.1875 54.6875 C-26.33869115 52.75303775 -28.47437883 50.49134026 -30.5 47.375 C-30.933125 46.715 -31.36625 46.055 -31.8125 45.375 C-32.71505885 42.74937427 -32.2319024 41.00984864 -31.5 38.375 C-28.86 38.045 -26.22 37.715 -23.5 37.375 C-22.860625 38.48875 -22.22125 39.6025 -21.5625 40.75 C-19.38834043 43.78643249 -17.75239699 45.01359889 -14.125 45.9375 C-9.72658309 46.63741559 -6.62478812 45.95470609 -2.5 44.375 C-2.17 42.065 -1.84 39.755 -1.5 37.375 C-6.18025716 34.76485658 -10.31711924 33.0855456 -15.5625 31.9375 C-22.1827869 30.38273565 -26.40973977 28.34182098 -30.4375 22.625 C-32.24706582 17.08985748 -32.58643908 11.88321385 -29.9375 6.5625 C-23.95526156 -2.64587417 -9.44153189 -4.35068678 0 0 Z " fill="#1EAA8E" transform="translate(711.5,108.625)"/>
<path d="M0 0 C0.8146875 0.00257812 1.629375 0.00515625 2.46875 0.0078125 C3.2834375 0.00523438 4.098125 0.00265625 4.9375 0 C6.96875 0.1328125 6.96875 0.1328125 7.96875 1.1328125 C8.06251053 2.94336275 8.0861911 4.75758451 8.08227539 6.57055664 C8.08219986 7.73168472 8.08212433 8.89281281 8.08204651 10.08912659 C8.07688522 11.3526445 8.07172394 12.61616241 8.06640625 13.91796875 C8.0649913 15.20392441 8.06357635 16.48988007 8.06211853 17.81480408 C8.05829418 21.23924693 8.04846462 24.66364759 8.03741455 28.08807373 C8.02719864 31.58019439 8.02262053 35.07232184 8.01757812 38.56445312 C8.00684227 45.42059028 7.98976684 52.27669937 7.96875 59.1328125 C4.66875 59.1328125 1.36875 59.1328125 -2.03125 59.1328125 C-2.69125 57.8128125 -3.35125 56.4928125 -4.03125 55.1328125 C-4.77375 55.7928125 -5.51625 56.4528125 -6.28125 57.1328125 C-11.04908382 60.32272037 -16.53960309 59.73795266 -22.03125 59.1328125 C-27.46111347 57.42341104 -30.88908506 53.7703451 -34.03125 49.1328125 C-37.11012628 42.73501195 -37.10291517 35.44370071 -34.78125 28.7578125 C-32.3662964 23.35449166 -29.85071401 20.26277716 -24.40625 17.7578125 C-19.18116913 15.84864834 -14.39716245 15.56069429 -9.03125 17.1328125 C-6.7421875 18.69140625 -6.7421875 18.69140625 -5.03125 20.1328125 C-3.52062307 18.62218557 -3.83592543 17.23889961 -3.75 15.1328125 C-3.71261719 14.3284375 -3.67523437 13.5240625 -3.63671875 12.6953125 C-3.60191406 11.8496875 -3.56710937 11.0040625 -3.53125 10.1328125 C-3.46264491 8.46596279 -3.38994777 6.79927476 -3.3125 5.1328125 C-3.28220703 4.3903125 -3.25191406 3.6478125 -3.22070312 2.8828125 C-2.94411759 0.32796054 -2.56422959 0.16766117 0 0 Z M-23.03125 30.1328125 C-25.40451838 34.87934925 -25.41698692 39.10693082 -24.03125 44.1328125 C-22.70963573 47.20155148 -22.70963573 47.20155148 -20.03125 49.1328125 C-15.78112644 50.41182164 -12.30769055 50.63228924 -8.15625 49.0078125 C-5.19536184 46.39526412 -3.33940773 44.21393254 -2.74609375 40.20703125 C-2.55073501 35.69679245 -3.13383654 32.75457933 -6.03125 29.1328125 C-8.66599708 26.30289897 -10.03335674 26.13257842 -13.96875 25.6953125 C-18.0990831 25.8722169 -20.22348418 26.99472129 -23.03125 30.1328125 Z " fill="#FAFAFA" transform="translate(620.03125,105.8671875)"/>
<path d="M0 0 C4.88730006 4.25482593 7.93651151 8.50090367 9 15 C9 17.31 9 19.62 9 22 C-0.9 22 -10.8 22 -21 22 C-20.34 24.31 -19.68 26.62 -19 29 C-14.9774336 30.34085547 -11.20726673 30.6032478 -7 30 C-6.360625 29.319375 -5.72125 28.63875 -5.0625 27.9375 C-3 26 -3 26 -0.578125 25.88671875 C2.02259026 26.11079167 4.47158488 26.34602013 7 27 C7.495 27.99 7.495 27.99 8 29 C5.04991976 34.28556042 1.80357921 37.9017829 -4 40 C-11.01154056 40.93977525 -18.165306 41.07959081 -24.3828125 37.34375 C-28.12380188 34.23529505 -30.47283832 30.58148505 -32 26 C-33.10542479 11.73820799 -33.10542479 11.73820799 -29.47265625 5.68359375 C-21.86727453 -3.01115299 -10.22270154 -6.01335385 0 0 Z M-19 9 C-19.66 10.65 -20.32 12.3 -21 14 C-14.73 14 -8.46 14 -2 14 C-4.26115145 7.94687331 -4.26115145 7.94687331 -8.25 6.4375 C-12.85628035 5.90010063 -15.05534646 6.60226942 -19 9 Z " fill="#F9FAFA" transform="translate(665,125)"/>
<path d="M0 0 C4.24011942 3.6041015 6.20928767 5.35784934 6.81640625 11.13671875 C7.28227039 18.09510213 7.59889947 25.02483167 7.625 32 C7.63188843 33.04353638 7.63188843 33.04353638 7.63891602 34.1081543 C7.62357275 39.00142725 7.62357275 39.00142725 6.5 40.125 C-0.86633663 40.60024752 -0.86633663 40.60024752 -3.5 38.625 C-3.83 38.13 -4.16 37.635 -4.5 37.125 C-5.2425 37.62 -5.985 38.115 -6.75 38.625 C-11.67286072 41.07470926 -17.15842696 40.79818455 -22.5 40.125 C-26.27198696 38.65089015 -28.24631149 36.50553276 -30.5 33.125 C-31.32547132 28.07659119 -31.08542284 24.1982752 -28.625 19.6875 C-23.51083083 14.61642776 -16.24068472 13.9640426 -9.375 13.9375 C-7.74948596 13.98477949 -6.1240633 14.04163553 -4.5 14.125 C-5.16 12.145 -5.82 10.165 -6.5 8.125 C-9.8 8.125 -13.1 8.125 -16.5 8.125 C-17.16 9.445 -17.82 10.765 -18.5 12.125 C-19.93655854 12.20631463 -21.3744483 12.26433559 -22.8125 12.3125 C-24.01326172 12.36470703 -24.01326172 12.36470703 -25.23828125 12.41796875 C-27.97851584 12.06301608 -28.79171079 11.23133718 -30.5 9.125 C-29.84 8.795 -29.18 8.465 -28.5 8.125 C-28.231875 7.361875 -27.96375 6.59875 -27.6875 5.8125 C-25.72150175 1.36313555 -22.77057394 -0.34135895 -18.375 -2.1875 C-11.8349721 -3.34782753 -5.91348852 -3.16794028 0 0 Z M-19.5 25.125 C-20.16685938 27.66827108 -20.16685938 27.66827108 -19.5 30.125 C-16.24139091 32.29740606 -15.67949197 32.36064158 -12 31.9375 C-11.2265625 31.86144531 -10.453125 31.78539062 -9.65625 31.70703125 C-7.09285666 31.0151008 -6.08047861 30.2423396 -4.5 28.125 C-4.24951364 24.99950983 -4.24951364 24.99950983 -4.5 22.125 C-12.62716005 21.44338432 -12.62716005 21.44338432 -19.5 25.125 Z " fill="#FAFBFB" transform="translate(572.5,124.875)"/>
<path d="M0 0 C5.52794167 4.29276056 7.91880914 8.65747711 8.8203125 15.59375 C8.93679757 21.1671128 7.946432 25.90457075 4.8203125 30.59375 C0.31126385 35.2478918 -3.8555698 38.25220386 -10.44921875 38.9296875 C-24.06463836 39.07980238 -24.06463836 39.07980238 -29.1796875 34.59375 C-34.16973411 28.51795699 -36.62334131 23.2489399 -36.51953125 15.359375 C-35.83802819 9.81335011 -33.46465658 4.91128396 -29.53515625 0.92578125 C-20.41080925 -6.0977003 -9.46220169 -6.10464625 0 0 Z M-22.1796875 8.59375 C-24.54238942 12.13780288 -24.89302247 14.36544086 -25.1796875 18.59375 C-24.20452268 23.1149687 -22.708196 25.61657095 -19.1796875 28.59375 C-15.63223953 30.36747398 -11.9152148 29.61135916 -8.1796875 28.59375 C-4.74602848 25.86083772 -3.48327015 24.43882515 -2.77734375 20.1484375 C-2.59478355 15.25582417 -2.83542863 11.41576014 -6.1796875 7.59375 C-11.24603416 3.79399001 -17.42311348 4.9243929 -22.1796875 8.59375 Z " fill="#FAFAFA" transform="translate(462.1796875,126.40625)"/>
<path d="M0 0 C3.4375 1.0625 3.4375 1.0625 5.4375 2.75 C6.83958688 5.9923259 6.56894192 7.73888935 5.4375 11.0625 C2.14424025 13.7327106 0.75608974 14.0625 -3.5625 14.0625 C-5.62720452 16.05106373 -5.62720452 16.05106373 -7.5625 18.75 C-11.63329886 23.97036 -15.94877656 28.82918651 -20.48828125 33.64526367 C-25.75165437 38.87983814 -25.75165437 38.87983814 -28 45.625 C-28.5625 49.0625 -28.5625 49.0625 -30.1875 51.0625 C-33.7965622 52.58210514 -35.85661223 52.25367821 -39.5625 51.0625 C-40.48071016 49.39004578 -41.39065251 47.71087974 -42.2109375 45.98828125 C-45.0542242 41.93700858 -49.96500177 39.62438981 -54.5625 38.0625 C-60.11178084 38.45388505 -63.90369246 40.29054061 -68.0234375 43.92578125 C-68.97863281 44.76206055 -68.97863281 44.76206055 -69.953125 45.61523438 C-70.60796875 46.19595703 -71.2628125 46.77667969 -71.9375 47.375 C-73.23651236 48.51745808 -74.53598576 49.65939217 -75.8359375 50.80078125 C-76.46105225 51.3534668 -77.08616699 51.90615234 -77.73022461 52.47558594 C-79.44246259 53.95853688 -81.19386989 55.37346815 -82.96484375 56.78515625 C-85.97220238 59.42168269 -86.49406193 61.28187298 -87.5625 65.0625 C-88.8125 67 -88.8125 67 -90.5625 68.0625 C-93.6675032 67.93312487 -95.80734734 67.50097574 -98.5 65.9375 C-100.28030396 62.79578713 -99.46578691 60.43477112 -98.5625 57.0625 C-96.875 55.125 -96.875 55.125 -94.5625 54.0625 C-93.63308594 54.13339844 -92.70367187 54.20429688 -91.74609375 54.27734375 C-87.51506716 53.99181435 -86.28719282 52.51938029 -83.3125 49.5625 C-78.91380912 45.3202605 -74.40696126 41.46969511 -69.55859375 37.75390625 C-66.81775127 35.43143112 -65.67754111 33.56449759 -64.875 30.0625 C-63.42909457 26.7575733 -63.07125667 26.51162254 -59.9375 25.1875 C-58.82375 24.81625 -57.71 24.445 -56.5625 24.0625 C-56.5625 24.7225 -56.5625 25.3825 -56.5625 26.0625 C-55.6034375 26.371875 -55.6034375 26.371875 -54.625 26.6875 C-52.5625 28.0625 -52.5625 28.0625 -51.8125 31.1875 C-51.73 32.13625 -51.6475 33.085 -51.5625 34.0625 C-50.675625 34.330625 -49.78875 34.59875 -48.875 34.875 C-45.5625 36.0625 -45.5625 36.0625 -43.25 37.75 C-39.89074538 39.39056621 -37.71008795 39.63520853 -34.02734375 39.08984375 C-28.58058019 36.8196396 -25.1738203 31.5451039 -21.5625 27.0625 C-20.34019146 25.66065721 -19.1118473 24.26403209 -17.875 22.875 C-17.33359375 22.24464844 -16.7921875 21.61429688 -16.234375 20.96484375 C-15.04821781 19.61517424 -13.82513733 18.2975588 -12.578125 17.00390625 C-8.63103872 13.07635777 -8.63103872 13.07635777 -7.375 7.875 C-7.436875 6.946875 -7.49875 6.01875 -7.5625 5.0625 C-5.41953565 1.03372701 -4.64228372 0.08144357 0 0 Z " fill="#6A7884" transform="translate(209.5625,131.9375)"/>
<path d="M0 0 C15.18 0 30.36 0 46 0 C46 3.3 46 6.6 46 10 C40.06 10 34.12 10 28 10 C28 25.51 28 41.02 28 57 C24.37 57 20.74 57 17 57 C17 41.49 17 25.98 17 10 C11.39 10 5.78 10 0 10 C0 6.7 0 3.4 0 0 Z " fill="#FAFAFB" transform="translate(471,108)"/>
<path d="M0 0 C1.32 0 2.64 0 4 0 C4 3.3 4 6.6 4 10 C4.804375 10.144375 5.60875 10.28875 6.4375 10.4375 C9 11 9 11 10 12 C10.08871273 15.02977804 10.1151935 18.03667022 10.09765625 21.06640625 C10.0962413 21.97502914 10.09482635 22.88365204 10.09336853 23.81980896 C10.08775193 26.73407221 10.07519665 29.64825981 10.0625 32.5625 C10.05748714 34.53320202 10.05292386 36.50390524 10.04882812 38.47460938 C10.03777711 43.31643559 10.02050138 48.15820495 10 53 C8.35 53.66 6.7 54.32 5 55 C4.67 57.31 4.34 59.62 4 62 C3.01 62 2.02 62 1 62 C0.67 59.36 0.34 56.72 0 54 C-0.639375 53.855625 -1.27875 53.71125 -1.9375 53.5625 C-4 53 -4 53 -5 52 C-5.39421335 48.5156065 -5.47771563 45.00249405 -5.625 41.5 C-5.66858643 40.46657471 -5.71217285 39.43314941 -5.75708008 38.3684082 C-5.98831002 31.9568525 -6.03638635 25.59457883 -5.6875 19.1875 C-5.65285645 18.48367187 -5.61821289 17.77984375 -5.58251953 17.0546875 C-5.25423186 12.25423186 -5.25423186 12.25423186 -3 10 C-2.01 10 -1.02 10 0 10 C0 6.7 0 3.4 0 0 Z " fill="#20B394" transform="translate(148,91)"/>
<path d="M0 0 C3.96 0 7.92 0 12 0 C12.02255577 7.41460363 12.04091784 14.82918865 12.05181217 22.24381924 C12.05703982 25.68640348 12.06413531 29.12896312 12.07543945 32.5715332 C12.08834235 36.52555043 12.09322918 40.47955756 12.09765625 44.43359375 C12.10281754 45.67523788 12.10797882 46.91688202 12.11329651 48.19615173 C12.11337204 49.33725906 12.11344757 50.47836639 12.11352539 51.65405273 C12.115746 52.664431 12.11796661 53.67480927 12.12025452 54.71580505 C12 57 12 57 11 58 C9.31391034 58.07205511 7.62499341 58.08386068 5.9375 58.0625 C5.01839844 58.05347656 4.09929687 58.04445312 3.15234375 58.03515625 C2.44207031 58.02355469 1.73179687 58.01195312 1 58 C-0.95110271 54.73000687 -1.22361235 52.37060841 -1.13525391 48.58886719 C-1.11508209 47.50804871 -1.09491028 46.42723022 -1.0741272 45.31365967 C-1.04193085 44.15312073 -1.0097345 42.99258179 -0.9765625 41.796875 C-0.95153656 40.60394836 -0.92651062 39.41102173 -0.90072632 38.1819458 C-0.8185416 34.37100754 -0.72194445 30.5605886 -0.625 26.75 C-0.566759 24.1666879 -0.50945575 21.58335447 -0.453125 19 C-0.31296458 12.66636787 -0.15987732 6.33316386 0 0 Z " fill="#FAFAFA" transform="translate(359,107)"/>
<path d="M0 0 C0 3.3 0 6.6 0 10 C-3.96 10.66 -7.92 11.32 -12 12 C-12.87412225 15.496489 -13.17534128 18.25796793 -13.28125 21.82421875 C-13.31863281 22.93474609 -13.35601563 24.04527344 -13.39453125 25.18945312 C-13.46519676 27.53319251 -13.53550575 29.87694267 -13.60546875 32.22070312 C-13.64285156 33.32736328 -13.68023438 34.43402344 -13.71875 35.57421875 C-13.76418945 37.09921997 -13.76418945 37.09921997 -13.81054688 38.6550293 C-14 41 -14 41 -15 42 C-16.68608966 42.07205511 -18.37500659 42.08386068 -20.0625 42.0625 C-20.98160156 42.05347656 -21.90070312 42.04445312 -22.84765625 42.03515625 C-23.55792969 42.02355469 -24.26820313 42.01195312 -25 42 C-26.32339119 38.02982643 -26.01212931 34.30326443 -25.87890625 30.17578125 C-25.85529526 29.31438034 -25.83168427 28.45297943 -25.80735779 27.56547546 C-25.7307872 24.81431325 -25.6467344 22.0634372 -25.5625 19.3125 C-25.5092727 17.44727963 -25.45653235 15.58204529 -25.40429688 13.71679688 C-25.27518096 9.14435004 -25.13935423 4.57214579 -25 0 C-23.39620659 -0.05416188 -21.79188594 -0.09286638 -20.1875 -0.125 C-19.29417969 -0.14820312 -18.40085937 -0.17140625 -17.48046875 -0.1953125 C-15 0 -15 0 -12 2 C-4.09756098 -1.36585366 -4.09756098 -1.36585366 0 0 Z " fill="#FAFAFB" transform="translate(541,123)"/>
<path d="M0 0 C2.27783203 0.48876953 2.27783203 0.48876953 4.27783203 3.48876953 C4.03258728 7.73967853 2.58379797 9.63959828 -0.47216797 12.48876953 C-1.19275391 13.17326172 -1.91333984 13.85775391 -2.65576172 14.56298828 C-3.33767578 15.19849609 -4.01958984 15.83400391 -4.72216797 16.48876953 C-5.65029297 17.41689453 -6.57841797 18.34501953 -7.53466797 19.30126953 C-8.25654297 20.02314453 -8.97841797 20.74501953 -9.72216797 21.48876953 C-10.27904297 22.08689453 -10.83591797 22.68501953 -11.40966797 23.30126953 C-12.72216797 24.48876953 -12.72216797 24.48876953 -14.72216797 24.48876953 C-10.03668975 30.04307815 -5.07026931 35.13004638 0.23876953 40.09423828 C2.45383272 42.69545233 3.15559312 44.0938617 3.27783203 47.48876953 C2.61783203 48.47876953 1.95783203 49.46876953 1.27783203 50.48876953 C-1.03173828 50.95019531 -1.03173828 50.95019531 -3.72216797 50.48876953 C-6.20166016 48.65625 -6.20166016 48.65625 -8.76904297 46.10595703 C-9.69587891 45.18556641 -10.62271484 44.26517578 -11.57763672 43.31689453 C-12.05249512 42.8315625 -12.52735352 42.34623047 -13.01660156 41.84619141 C-14.46427838 40.37180468 -15.93659703 38.92592238 -17.41357422 37.48095703 C-18.79609375 36.08876953 -18.79609375 36.08876953 -20.20654297 34.66845703 C-21.04926758 33.82009277 -21.89199219 32.97172852 -22.76025391 32.09765625 C-25.07783897 29.0158103 -25.82374283 27.35235331 -25.72216797 23.48876953 C-24.19206222 21.261568 -22.87958903 19.70732582 -20.96435547 17.87158203 C-20.46428986 17.36956268 -19.96422424 16.86754333 -19.44900513 16.35031128 C-18.38958579 15.29488548 -17.32152656 14.24807112 -16.24560547 13.20947266 C-14.60235901 11.61879451 -12.9934908 9.99852711 -11.38623047 8.37158203 C-10.35166447 7.34883095 -9.31526382 6.32793171 -8.27685547 5.30908203 C-7.79642792 4.82480743 -7.31600037 4.34053284 -6.8210144 3.84158325 C-4.57685212 1.70502681 -3.08176348 0.55333547 0 0 Z " fill="#22B393" transform="translate(114.72216796875,106.51123046875)"/>
<path d="M0 0 C0.99 0 1.98 0 3 0 C3 3.96 3 7.92 3 12 C4.65 12 6.3 12 8 12 C9.35700647 14.71401294 9.1123861 16.84846316 9.09765625 19.8828125 C9.09443359 21.04941406 9.09121094 22.21601563 9.08789062 23.41796875 C9.07951172 24.64128906 9.07113281 25.86460937 9.0625 27.125 C9.05798828 28.35605469 9.05347656 29.58710938 9.04882812 30.85546875 C9.0370133 33.90369392 9.02054028 36.95182314 9 40 C7.35 40.66 5.7 41.32 4 42 C4.03480469 42.62648437 4.06960937 43.25296875 4.10546875 43.8984375 C4.13253906 44.71570313 4.15960938 45.53296875 4.1875 46.375 C4.22230469 47.18710938 4.25710937 47.99921875 4.29296875 48.8359375 C4.19628906 49.55007812 4.09960938 50.26421875 4 51 C3.01 51.66 2.02 52.32 1 53 C-0.73956658 51.26043342 -0.37190386 48.8063378 -0.5625 46.4375 C-0.64628906 45.42558594 -0.73007813 44.41367188 -0.81640625 43.37109375 C-0.87699219 42.58863281 -0.93757813 41.80617187 -1 41 C-2.65 40.67 -4.3 40.34 -6 40 C-6 31.09 -6 22.18 -6 13 C-4.35 12.67 -2.7 12.34 -1 12 C-0.67 8.04 -0.34 4.08 0 0 Z " fill="#20917E" transform="translate(126,123)"/>
<path d="M0 0 C1.32 0 2.64 0 4 0 C4 2.31 4 4.62 4 7 C5.2065625 7.185625 5.2065625 7.185625 6.4375 7.375 C7.7059375 7.684375 7.7059375 7.684375 9 8 C10.17986385 10.35972769 10.1291146 11.80047732 10.1328125 14.4296875 C10.13474609 15.74646484 10.13474609 15.74646484 10.13671875 17.08984375 C10.13285156 18.00894531 10.12898438 18.92804688 10.125 19.875 C10.13080078 21.24205078 10.13080078 21.24205078 10.13671875 22.63671875 C10.13542969 23.51714844 10.13414062 24.39757812 10.1328125 25.3046875 C10.13168457 26.10890137 10.13055664 26.91311523 10.12939453 27.74169922 C10.0027734 29.95159635 9.61146326 31.87779135 9 34 C6.525 34.495 6.525 34.495 4 35 C4 37.97 4 40.94 4 44 C2.68 44 1.36 44 0 44 C0 41.03 0 38.06 0 35 C-1.98 34.34 -3.96 33.68 -6 33 C-6.05799124 29.22923111 -6.09359306 25.45857666 -6.125 21.6875 C-6.14175781 20.61564453 -6.15851563 19.54378906 -6.17578125 18.43945312 C-6.18222656 17.41142578 -6.18867188 16.38339844 -6.1953125 15.32421875 C-6.20578613 14.37635498 -6.21625977 13.42849121 -6.22705078 12.4519043 C-6 10 -6 10 -4 7 C-2.68 7 -1.36 7 0 7 C0 4.69 0 2.38 0 0 Z " fill="#21B898" transform="translate(170,112)"/>
<path d="M0 0 C3.63 0 7.26 0 11 0 C11.02464638 5.82071622 11.0428343 11.64140234 11.05493164 17.4621582 C11.05997267 19.44393441 11.06680538 21.42570689 11.07543945 23.4074707 C11.08751515 26.24952109 11.09323045 29.09152247 11.09765625 31.93359375 C11.10281754 32.82525742 11.10797882 33.71692108 11.11329651 34.63560486 C11.11349177 36.75740601 11.0621003 38.8791078 11 41 C10.505 41.495 10.505 41.495 10 42 C6.7 42 3.4 42 0 42 C0 28.14 0 14.28 0 0 Z " fill="#21A98E" transform="translate(727,123)"/>
<path d="M0 0 C0.495 0.99 0.495 0.99 1 2 C1.66 2.33 2.32 2.66 3 3 C3 3.66 3 4.32 3 5 C3.495 6.485 3.495 6.485 4 8 C3.5625 10.1875 3.5625 10.1875 3 12 C2.2575 12.144375 1.515 12.28875 0.75 12.4375 C-0.1575 12.623125 -1.065 12.80875 -2 13 C-3.051875 13.12375 -3.051875 13.12375 -4.125 13.25 C-6.22658514 13.8616712 -6.22658514 13.8616712 -7.22265625 16.203125 C-9.40972748 19.64475796 -12.18176759 21.96272084 -15.3125 24.5 C-15.86873047 24.96019531 -16.42496094 25.42039063 -16.99804688 25.89453125 C-19.22129665 27.73214166 -21.44598238 29.56445801 -23.71362305 31.34716797 C-27.47585714 34.35041909 -28.69392368 36.37849917 -30 41 C-31.25 42.9375 -31.25 42.9375 -33 44 C-36.1050032 43.87062487 -38.24484734 43.43847574 -40.9375 41.875 C-42.71780396 38.73328713 -41.90328691 36.37227112 -41 33 C-39.3125 31.0625 -39.3125 31.0625 -37 30 C-36.07058594 30.07089844 -35.14117187 30.14179688 -34.18359375 30.21484375 C-29.95256716 29.92931435 -28.72469282 28.45688029 -25.75 25.5 C-21.35130912 21.2577605 -16.84446126 17.40719511 -11.99609375 13.69140625 C-9.26531579 11.37745937 -8.11744999 9.46979996 -7.25 6 C-6 3 -6 3 -2.875 1.125 C-1.92625 0.75375 -0.9775 0.3825 0 0 Z " fill="#6D7883" transform="translate(152,156)"/>
<path d="M0 0 C3.4375 1.0625 3.4375 1.0625 5.4375 2.75 C6.83958688 5.9923259 6.56894192 7.73888935 5.4375 11.0625 C2.14424025 13.7327106 0.75608974 14.0625 -3.5625 14.0625 C-5.59308436 16.01759277 -5.59308436 16.01759277 -7.5 18.6875 C-11.33066306 23.60074175 -15.36242063 28.20642898 -19.625 32.75 C-20.20950928 33.37406738 -20.79401855 33.99813477 -21.39624023 34.64111328 C-22.78232002 36.11742349 -24.17201 37.59034289 -25.5625 39.0625 C-25.5625 35.15411134 -24.05682124 33.94655893 -21.5625 31.0625 C-23.5425 32.0525 -23.5425 32.0525 -25.5625 33.0625 C-23.97455122 29.29553261 -21.58698488 26.72206183 -18.8125 23.75 C-17.92304688 22.780625 -17.03359375 21.81125 -16.1171875 20.8125 C-14.61513804 19.19561495 -13.1035448 17.58734638 -11.5703125 16 C-8.29802664 12.51498473 -8.29802664 12.51498473 -7.4375 7.9375 C-7.47875 6.98875 -7.52 6.04 -7.5625 5.0625 C-5.41953565 1.03372701 -4.64228372 0.08144357 0 0 Z " fill="#7F8B94" transform="translate(209.5625,131.9375)"/>
<path d="M0 0 C5.26727588 0 8.07583465 0.57222348 11.9375 4.25 C14.42567644 7.02221485 16.10769725 9.12289917 16 13 C14 16 14 16 11.7421875 16.515625 C7.84432578 15.78269374 5.77696693 13.50720371 3.125 10.75 C2.61453125 10.25886719 2.1040625 9.76773438 1.578125 9.26171875 C0.1328125 7.796875 0.1328125 7.796875 -2 5 C-1.88006013 2.64917853 -1.6543928 1.6543928 0 0 Z " fill="#28AB8F" transform="translate(102,141)"/>
<path d="M0 0 C1.32 0 2.64 0 4 0 C4 3.3 4 6.6 4 10 C4.804375 10.144375 5.60875 10.28875 6.4375 10.4375 C9 11 9 11 10 12 C10.08843793 14.44830426 10.11528752 16.86820599 10.09765625 19.31640625 C10.0962413 20.04746078 10.09482635 20.77851532 10.09336853 21.53172302 C10.08775408 23.87535632 10.07519922 26.21889539 10.0625 28.5625 C10.05748686 30.14778508 10.05292363 31.73307166 10.04882812 33.31835938 C10.03777997 37.2122761 10.02050572 41.10612205 10 45 C9.67 45 9.34 45 9 45 C8.34 34.44 7.68 23.88 7 13 C2.545 13.495 2.545 13.495 -2 14 C-2.33 18.29 -2.66 22.58 -3 27 C-3.66 26.67 -4.32 26.34 -5 26 C-5.05384521 23.70858714 -5.09272087 21.41681812 -5.125 19.125 C-5.14820313 17.84882812 -5.17140625 16.57265625 -5.1953125 15.2578125 C-5 12 -5 12 -3 10 C-2.01 10 -1.02 10 0 10 C0 6.7 0 3.4 0 0 Z " fill="#35BB9C" transform="translate(148,91)"/>
<path d="M0 0 C2.3125 0.5 2.3125 0.5 4.3125 3.5 C4.42302182 7.47878537 2.65330724 9.51849219 0.0625 12.3125 C-2.38038016 14.63953223 -3.2240202 15.43097109 -6.625 15.9375 C-7.6459375 15.7209375 -7.6459375 15.7209375 -8.6875 15.5 C-9.875 13.3125 -9.875 13.3125 -10.6875 10.5 C-8.69493045 5.81160105 -5.18681547 0.96498892 0 0 Z " fill="#48CCAB" transform="translate(114.6875,106.5)"/>
<path d="M0 0 C1.32 0.33 2.64 0.66 4 1 C4.33 2.98 4.66 4.96 5 7 C5.886875 7.268125 6.77375 7.53625 7.6875 7.8125 C11 9 11 9 13.4375 10.6875 C16.92549278 12.47403289 19.25254165 11.80827533 23 11 C23 11.66 23 12.32 23 13 C16.00433974 17.20086795 16.00433974 17.20086795 12.5 16.5 C11.675 16.005 10.85 15.51 10 15 C4.76990283 11.86922086 4.76990283 11.86922086 -1.125 11.1875 C-2.548125 11.5896875 -2.548125 11.5896875 -4 12 C-6 12.33333333 -8 12.66666667 -10 13 C-8.375 11 -8.375 11 -6 9 C-2.875 8.8125 -2.875 8.8125 0 9 C0.66 8.67 1.32 8.34 2 8 C2.20086443 4.28400809 2.1519437 3.22791555 0 0 Z " fill="#77828C" transform="translate(153,159)"/>
<path d="M0 0 C1.875 1.125 1.875 1.125 3 3 C3.39310741 6.14485925 3.47555213 8.13281671 1.9375 10.9375 C-1.21566824 12.66665678 -3.62508255 11.8590699 -7 11 C-9.15502531 7.76746204 -9.46856135 6.74849077 -9 3 C-6.73529086 -0.64869805 -4.03159541 -0.50394943 0 0 Z " fill="#2CA68F" transform="translate(735,107)"/>
<path d="M0 0 C0.144375 0.61875 0.28875 1.2375 0.4375 1.875 C0.93152225 4.03258322 0.93152225 4.03258322 2 6 C4.01669827 7.13350534 4.01669827 7.13350534 6 8 C2.83047153 11.26008643 -0.39937989 14.22237877 -4 17 C-6 16 -6 16 -6.6875 14.0625 C-7 12 -7 12 -6 10 C-8.51083114 11.25541557 -8.87125446 12.50063488 -10 15 C-10.66 14.67 -11.32 14.34 -12 14 C-8.72905967 8.54843278 -4.58146674 4.38130557 0 0 Z " fill="#34BB9E" transform="translate(104,115)"/>
<path d="M0 0 C1.45742463 -0.08096803 2.91612807 -0.13917774 4.375 -0.1875 C5.18710937 -0.22230469 5.99921875 -0.25710937 6.8359375 -0.29296875 C7.55007813 -0.19628906 8.26421875 -0.09960938 9 0 C9.66 0.99 10.32 1.98 11 3 C11.82371094 2.27103516 11.82371094 2.27103516 12.6640625 1.52734375 C16.76772398 -1.15581952 21.27043539 -0.63562068 26 0 C29.15189089 1.30107124 31.43733385 2.8746677 33 6 C32.01 6 31.02 6 30 6 C29.56042969 5.50886719 29.12085938 5.01773438 28.66796875 4.51171875 C26.26392093 2.33287447 24.49186496 2.70028712 21.3125 2.8125 C20.31863281 2.83957031 19.32476563 2.86664063 18.30078125 2.89453125 C17.16189453 2.94673828 17.16189453 2.94673828 16 3 C16 4.32 16 5.64 16 7 C17.98 7.66 19.96 8.32 22 9 C22 9.33 22 9.66 22 10 C21.38511719 10.03738281 20.77023437 10.07476562 20.13671875 10.11328125 C18.92435547 10.21189453 18.92435547 10.21189453 17.6875 10.3125 C16.88699219 10.37050781 16.08648438 10.42851562 15.26171875 10.48828125 C12.58360838 10.8827572 12.58360838 10.8827572 10 14 C9.34 10.04 8.68 6.08 8 2 C5.36 1.67 2.72 1.34 0 1 C0 0.67 0 0.34 0 0 Z " fill="#2FAB95" transform="translate(745,123)"/>
<path d="M0 0 C0.33 0 0.66 0 1 0 C1.33 7.26 1.66 14.52 2 22 C8.34417455 24.19329019 8.34417455 24.19329019 14 22 C14.33 21.34 14.66 20.68 15 20 C15 21.32 15 22.64 15 24 C13.35 24.33 11.7 24.66 10 25 C10 27.97 10 30.94 10 34 C8.68 34 7.36 34 6 34 C6 31.03 6 28.06 6 25 C4.02 24.34 2.04 23.68 0 23 C0 15.41 0 7.82 0 0 Z " fill="#3CA591" transform="translate(164,122)"/>
<path d="M0 0 C0.33 0 0.66 0 1 0 C1.33 3.96 1.66 7.92 2 12 C7.7974423 12.24428343 7.7974423 12.24428343 13 10 C13.99 11.485 13.99 11.485 15 13 C13.35 13.66 11.7 14.32 10 15 C10.03480469 15.62648437 10.06960937 16.25296875 10.10546875 16.8984375 C10.13253906 17.71570313 10.15960938 18.53296875 10.1875 19.375 C10.22230469 20.18710938 10.25710937 20.99921875 10.29296875 21.8359375 C10.19628906 22.55007812 10.09960938 23.26421875 10 24 C9.01 24.66 8.02 25.32 7 26 C5.26043342 24.26043342 5.62809614 21.8063378 5.4375 19.4375 C5.35371094 18.42558594 5.26992187 17.41367188 5.18359375 16.37109375 C5.12300781 15.58863281 5.06242187 14.80617187 5 14 C3.35 13.67 1.7 13.34 0 13 C0 8.71 0 4.42 0 0 Z " fill="#2A7F73" transform="translate(120,150)"/>
<path d="M0 0 C4.7361809 3.27889447 4.7361809 3.27889447 5.9375 6.5625 C6 9 6 9 4 12 C1.5625 12.5 1.5625 12.5 -1 12 C-3.24243223 9.13896577 -4 7.65923696 -4 4 C-2 1.8125 -2 1.8125 0 0 Z " fill="#289F87" transform="translate(112,145)"/>
<path d="M0 0 C0.33 0 0.66 0 1 0 C1 2.64 1 5.28 1 8 C-0.65 8.66 -2.3 9.32 -4 10 C-4.33 12.31 -4.66 14.62 -5 17 C-5.99 17 -6.98 17 -8 17 C-8.33 14.36 -8.66 11.72 -9 9 C-9.639375 8.855625 -10.27875 8.71125 -10.9375 8.5625 C-13 8 -13 8 -14 7 C-14.04063832 5.33382885 -14.042721 3.66611905 -14 2 C-13.34 2 -12.68 2 -12 2 C-11.67 3.32 -11.34 4.64 -11 6 C-8.03 6.33 -5.06 6.66 -2 7 C-1.34 4.69 -0.68 2.38 0 0 Z " fill="#309E8C" transform="translate(157,136)"/>
<path d="M0 0 C1.32 0 2.64 0 4 0 C4 2.31 4 4.62 4 7 C5.2065625 7.185625 5.2065625 7.185625 6.4375 7.375 C7.7059375 7.684375 7.7059375 7.684375 9 8 C10.53266582 11.06533164 10.10276471 14.26754272 10.0625 17.625 C10.05798828 18.33140625 10.05347656 19.0378125 10.04882812 19.765625 C10.03703875 21.51045275 10.01910324 23.255237 10 25 C9.67 25 9.34 25 9 25 C8.08342019 19.61509359 7.88861841 14.45769811 8 9 C7.0925 9 6.185 9 5.25 9 C2.83333333 9 0.41666667 9 -2 9 C-2.66 8.34 -3.32 7.68 -4 7 C-2.68 7 -1.36 7 0 7 C0 4.69 0 2.38 0 0 Z " fill="#38B89C" transform="translate(170,112)"/>
<path d="M0 0 C0 0.66 0 1.32 0 2 C2.31 2.66 4.62 3.32 7 4 C6.4225 4.2475 5.845 4.495 5.25 4.75 C2.68454238 6.17525423 1.00051002 7.86612265 -1 10 C-1.66 10.66 -2.32 11.32 -3 12 C-3.66 11.01 -4.32 10.02 -5 9 C-4.67 8.01 -4.34 7.02 -4 6 C-4 5.67 -4 5.34 -4 5 C-5.32 5 -6.64 5 -8 5 C-8.33 4.01 -8.66 3.02 -9 2 C-3.375 0 -3.375 0 0 0 Z " fill="#1CB295" transform="translate(692,111)"/>
<path d="M0 0 C0.33 0.99 0.66 1.98 1 3 C0.01 4.1446875 0.01 4.1446875 -1 5.3125 C-3.37255622 7.88740533 -3.37255622 7.88740533 -2.75 11.3125 C-2.5025 12.199375 -2.255 13.08625 -2 14 C-4.6325634 11.54294083 -6.84701619 9.45895144 -8 6 C-7.625 3.25 -7.625 3.25 -7 1 C-3.535 0.505 -3.535 0.505 0 0 Z " fill="#2DAD95" transform="translate(687,146)"/>
<path d="M0 0 C1.1446875 -0.01417969 2.289375 -0.02835937 3.46875 -0.04296875 C6.5 0.1875 6.5 0.1875 9.5 2.1875 C8.52417969 2.22488281 7.54835938 2.26226562 6.54296875 2.30078125 C4.63451172 2.39939453 4.63451172 2.39939453 2.6875 2.5 C1.42292969 2.55800781 0.15835938 2.61601563 -1.14453125 2.67578125 C-4.46603693 2.8988494 -4.46603693 2.8988494 -6.44921875 4.73046875 C-6.79597656 5.21128906 -7.14273438 5.69210938 -7.5 6.1875 C-7.83 5.5275 -8.16 4.8675 -8.5 4.1875 C-9.0775 4.538125 -9.655 4.88875 -10.25 5.25 C-12.85801776 6.33667407 -13.89417629 6.11815133 -16.5 5.1875 C-10.69694869 1.79326244 -6.86714445 0.03866635 0 0 Z " fill="#34A791" transform="translate(700.5,106.8125)"/>
<path d="M0 0 C0.99 0 1.98 0 3 0 C3 0.66 3 1.32 3 2 C3.99 2.33 4.98 2.66 6 3 C5.01 3.495 5.01 3.495 4 4 C3.34786708 6.02463255 3.34786708 6.02463255 3 8 C-2.625 8.25 -2.625 8.25 -6 6 C-5.67 4.68 -5.34 3.36 -5 2 C-4.01 2 -3.02 2 -2 2 C-1.34 1.34 -0.68 0.68 0 0 Z " fill="#1DB090" transform="translate(691,155)"/>
<path d="M0 0 C0.66 0 1.32 0 2 0 C2 8.25 2 16.5 2 25 C1.34 24.67 0.68 24.34 0 24 C0 18.06 0 12.12 0 6 C-0.66 6 -1.32 6 -2 6 C-1.34 4.02 -0.68 2.04 0 0 Z " fill="#348C80" transform="translate(133,137)"/>
<path d="M0 0 C0.66 0.33 1.32 0.66 2 1 C-0.14124407 3.50396362 -2.28873818 6.00248626 -4.4375 8.5 C-5.04916016 9.21542969 -5.66082031 9.93085938 -6.29101562 10.66796875 C-7.1659668 11.68310547 -7.1659668 11.68310547 -8.05859375 12.71875 C-8.59798584 13.34716797 -9.13737793 13.97558594 -9.69311523 14.62304688 C-10.12438721 15.07744141 -10.55565918 15.53183594 -11 16 C-11.33 16 -11.66 16 -12 16 C-12.3301369 12.84169028 -12.33793999 11.44785251 -10.390625 8.8671875 C-9.68421875 8.20976562 -8.9778125 7.55234375 -8.25 6.875 C-7.55390625 6.21242187 -6.8578125 5.54984375 -6.140625 4.8671875 C-4.15723064 3.13714643 -2.12976466 1.54455906 0 0 Z " fill="#7D8992" transform="translate(201,146)"/>
<path d="M0 0 C0 2.83967231 -0.40267181 5.23735711 -1 8 C1.77260299 9.93798263 1.77260299 9.93798263 4 11 C4 11.66 4 12.32 4 13 C5.45833358 14.62514468 5.45833358 14.62514468 7 16 C6.67 16.99 6.34 17.98 6 19 C4.50565827 17.64150752 3.03003664 16.26240594 1.5625 14.875 C0.73878906 14.10929688 -0.08492188 13.34359375 -0.93359375 12.5546875 C-3.32672098 9.59607652 -3.87544527 7.77816001 -4 4 C-2.0625 1.625 -2.0625 1.625 0 0 Z " fill="#3DAC94" transform="translate(93,126)"/>
<path d="M0 0 C0.66 0 1.32 0 2 0 C0.66465724 2.94113469 -0.82464881 5.10845169 -3.0390625 7.453125 C-3.61914062 8.071875 -4.19921875 8.690625 -4.796875 9.328125 C-5.40015625 9.96234375 -6.0034375 10.5965625 -6.625 11.25 C-7.23601562 11.8996875 -7.84703125 12.549375 -8.4765625 13.21875 C-9.98028074 14.81645063 -11.48815737 16.40999149 -13 18 C-13 14.09161134 -11.49432124 12.88405893 -9 10 C-10.98 10.99 -10.98 10.99 -13 12 C-11.63016497 8.83884224 -11.0109362 8.0072908 -8 6 C-7.67 6.66 -7.34 7.32 -7 8 C-6.27683594 7.13375 -6.27683594 7.13375 -5.5390625 6.25 C-4.90742188 5.5075 -4.27578125 4.765 -3.625 4 C-2.99851563 3.2575 -2.37203125 2.515 -1.7265625 1.75 C-0.87191406 0.88375 -0.87191406 0.88375 0 0 Z " fill="#8A959E" transform="translate(197,153)"/>
<path d="M0 0 C3.15570209 1.28543077 5.43975756 2.87951513 7 6 C6.01 6 5.02 6 4 6 C3.5565625 5.51273438 3.113125 5.02546875 2.65625 4.5234375 C0.31147925 2.36669082 -1.36482635 2.59971634 -4.5 2.625 C-5.4590625 2.61726563 -6.418125 2.60953125 -7.40625 2.6015625 C-10.33081505 3.05081797 -11.207335 3.71071834 -13 6 C-13.66 5.67 -14.32 5.34 -15 5 C-12.03305793 -1.56965745 -6.5832925 -0.69541822 0 0 Z " fill="#30A48C" transform="translate(771,123)"/>
<path d="M0 0 C0.66 0.66 1.32 1.32 2 2 C0.7934375 3.11375 0.7934375 3.11375 -0.4375 4.25 C-2.91945516 6.91356164 -3.31232426 7.67623392 -4 11 C-4.99 11.66 -5.98 12.32 -7 13 C-7 12.01 -7 11.02 -7 10 C-7.99 9.67 -8.98 9.34 -10 9 C-9.0919838 7.86800647 -8.17316174 6.74467637 -7.25 5.625 C-6.73953125 4.99851563 -6.2290625 4.37203125 -5.703125 3.7265625 C-3.91800519 1.91687682 -2.32050356 0.99882545 0 0 Z " fill="#77828B" transform="translate(187,162)"/>
<path d="M0 0 C0.625 1.875 0.625 1.875 1 4 C0.34 4.66 -0.32 5.32 -1 6 C-1.40047444 8.32275177 -1.7397104 10.65739357 -2 13 C-1.34 13 -0.68 13 0 13 C0.185625 13.886875 0.37125 14.77375 0.5625 15.6875 C2.51562538 20.18818022 4.89075404 21.41269699 9 24 C8.34 24.33 7.68 24.66 7 25 C2.11142824 21.8639351 -1.12903737 19.7229445 -3 14 C-3.68752764 8.52882933 -3.48894549 4.50655459 0 0 Z " fill="#3FA491" transform="translate(683,114)"/>
<path d="M0 0 C3.4375 0.9375 3.4375 0.9375 4.875 3 C5.1534375 3.9590625 5.1534375 3.9590625 5.4375 4.9375 C4.715625 4.6075 3.99375 4.2775 3.25 3.9375 C0.42052573 2.93146471 -1.59145466 2.76772598 -4.5625 2.9375 C-4.5625 3.9275 -4.5625 4.9175 -4.5625 5.9375 C-3.9025 5.9375 -3.2425 5.9375 -2.5625 5.9375 C-3.2225 7.2575 -3.8825 8.5775 -4.5625 9.9375 C-5.5525 9.2775 -6.5425 8.6175 -7.5625 7.9375 C-7.21030657 5.33126858 -6.79776531 3.32960885 -5.4375 1.0625 C-3.5625 -0.0625 -3.5625 -0.0625 0 0 Z " fill="#86919B" transform="translate(209.5625,132.0625)"/>
<path d="M0 0 C3.08238235 2.77414411 4.98522814 4.94091256 6 9 C6.08135095 13.44718547 5.48252521 16.29814515 2.9375 20 C1.9784375 20.99 1.9784375 20.99 1 22 C1.33 20.02 1.66 18.04 2 16 C2.66 16 3.32 16 4 16 C4 13.03 4 10.06 4 7 C3.34 7 2.68 7 2 7 C1.34 4.69 0.68 2.38 0 0 Z " fill="#369E8B" transform="translate(717,137)"/>
<path d="M0 0 C0.33 0 0.66 0 1 0 C1.02886338 4.47915328 1.04675187 8.95828291 1.0625 13.4375 C1.07087891 14.71689453 1.07925781 15.99628906 1.08789062 17.31445312 C1.09111328 18.52939453 1.09433594 19.74433594 1.09765625 20.99609375 C1.10289307 22.12200928 1.10812988 23.2479248 1.11352539 24.40795898 C1 27 1 27 0 28 C-1.51928038 28.07179964 -3.04167482 28.08392007 -4.5625 28.0625 C-5.38878906 28.05347656 -6.21507812 28.04445312 -7.06640625 28.03515625 C-8.02353516 28.01775391 -8.02353516 28.01775391 -9 28 C-9 27.67 -9 27.34 -9 27 C-7.865625 26.855625 -6.73125 26.71125 -5.5625 26.5625 C-2.19222799 26.38828522 -2.19222799 26.38828522 -1 25 C-0.84213692 23.14825294 -0.74892644 21.2909089 -0.68359375 19.43359375 C-0.64169922 18.30888672 -0.59980469 17.18417969 -0.55664062 16.02539062 C-0.51732422 14.84138672 -0.47800781 13.65738281 -0.4375 12.4375 C-0.39431641 11.24962891 -0.35113281 10.06175781 -0.30664062 8.83789062 C-0.20016454 5.89205216 -0.09815159 2.9461257 0 0 Z " fill="#439F91" transform="translate(754,137)"/>
<path d="M0 0 C0 0.99 0 1.98 0 3 C-0.66 3 -1.32 3 -2 3 C-2.66 4.65 -3.32 6.3 -4 8 C-4.99 8 -5.98 8 -7 8 C-7.1875 5.125 -7.1875 5.125 -7 2 C-4 0 -4 0 0 0 Z " fill="#1BB496" transform="translate(710,109)"/>
<path d="M0 0 C2.64 0 5.28 0 8 0 C8.33 1.65 8.66 3.3 9 5 C8.01 5.495 8.01 5.495 7 6 C6.67 5.34 6.34 4.68 6 4 C4.02 4 2.04 4 0 4 C0 2.68 0 1.36 0 0 Z " fill="#1EB596" transform="translate(745,124)"/>
<path d="M0 0 C2.33944736 0.28730055 4.6739143 0.61936779 7 1 C6.34 2.65 5.68 4.3 5 6 C3.35 5.67 1.7 5.34 0 5 C-0.5625 3.0625 -0.5625 3.0625 -1 1 C-0.67 0.67 -0.34 0.34 0 0 Z " fill="#30CEA7" transform="translate(105,116)"/>
<path d="M0 0 C0.99 0.33 1.98 0.66 3 1 C2.01 1.495 2.01 1.495 1 2 C0.68758629 4.54941373 0.48696579 7.00361513 0.375 9.5625 C0.33632812 10.27341797 0.29765625 10.98433594 0.2578125 11.71679688 C0.16328217 13.47742425 0.08054183 15.23867728 0 17 C-0.66 16.67 -1.32 16.34 -2 16 C-2.05384521 13.70858714 -2.09272087 11.41681812 -2.125 9.125 C-2.14820313 7.84882812 -2.17140625 6.57265625 -2.1953125 5.2578125 C-2 2 -2 2 0 0 Z " fill="#44B9A3" transform="translate(145,101)"/>
<path d="M0 0 C0.99 0.33 1.98 0.66 3 1 C3.1875 4.375 3.1875 4.375 3 8 C2.01 8.66 1.02 9.32 0 10 C-1 9 -1 9 -1.1328125 7.1875 C-1.13023438 6.465625 -1.12765625 5.74375 -1.125 5 C-1.12757812 4.278125 -1.13015625 3.55625 -1.1328125 2.8125 C-1 1 -1 1 0 0 Z " fill="#297968" transform="translate(127,166)"/>
<path d="M0 0 C0.99 0.66 1.98 1.32 3 2 C1.68 2.99 0.36 3.98 -1 5 C-0.67 6.32 -0.34 7.64 0 9 C-0.99 9.33 -1.98 9.66 -3 10 C-3.45375 9.525625 -3.9075 9.05125 -4.375 8.5625 C-5.93258204 6.90972192 -5.93258204 6.90972192 -8 6 C-7.67 5.34 -7.34 4.68 -7 4 C-6.01 4 -5.02 4 -4 4 C-3.67 3.34 -3.34 2.68 -3 2 C-2.01 2 -1.02 2 0 2 C0 1.34 0 0.68 0 0 Z " fill="#20B193" transform="translate(714,136)"/>
<path d="M0 0 C1.32 0.33 2.64 0.66 4 1 C4 2.98 4 4.96 4 7 C1.69 7.33 -0.62 7.66 -3 8 C-2.5359375 7.13375 -2.5359375 7.13375 -2.0625 6.25 C-1.07416636 4.15705816 -0.4831387 2.25464725 0 0 Z " fill="#16AE8E" transform="translate(734,109)"/>
<path d="M0 0 C2 0.25 2 0.25 4 1 C4.33 1.99 4.66 2.98 5 4 C2.69 5.98 0.38 7.96 -2 10 C-1.125 1.125 -1.125 1.125 0 0 Z " fill="#3EC5A5" transform="translate(112,112)"/>
<path d="M0 0 C1.32 0 2.64 0 4 0 C4 1.32 4 2.64 4 4 C6.31 3.34 8.62 2.68 11 2 C10.67 2.99 10.34 3.98 10 5 C7.03 5 4.06 5 1 5 C0.67 3.35 0.34 1.7 0 0 Z " fill="#31A991" transform="translate(794,160)"/>
<path d="M0 0 C0.99 0.33 1.98 0.66 3 1 C3 3.97 3 6.94 3 10 C2.01 10 1.02 10 0 10 C0 6.7 0 3.4 0 0 Z " fill="#1DA38A" transform="translate(170,145)"/>
<path d="M0 0 C4 0 4 0 6.25 2 C6.8275 2.66 7.405 3.32 8 4 C3.25 5 3.25 5 1 5 C0.67 3.35 0.34 1.7 0 0 Z " fill="#7A858D" transform="translate(202,140)"/>
<path d="M0 0 C1.32 0.33 2.64 0.66 4 1 C4 1.66 4 2.32 4 3 C5.45833358 4.62514468 5.45833358 4.62514468 7 6 C6.67 6.99 6.34 7.98 6 9 C4.99105628 8.07213211 3.99309093 7.13231567 3 6.1875 C2.1646875 5.40439453 2.1646875 5.40439453 1.3125 4.60546875 C0 3 0 3 0 0 Z " fill="#36B39A" transform="translate(93,136)"/>
<path d="M0 0 C4.67692308 1.47692308 4.67692308 1.47692308 6.3125 4.125 C6.539375 4.74375 6.76625 5.3625 7 6 C5.68 6.33 4.36 6.66 3 7 C2.34 6.01 1.68 5.02 1 4 C1.33 3.34 1.66 2.68 2 2 C1.34 2 0.68 2 0 2 C0 1.34 0 0.68 0 0 Z " fill="#28A98F" transform="translate(710,109)"/>
<path d="M0 0 C2.8992226 0.46761655 3.86675182 0.86675182 6 3 C3.36 3.66 0.72 4.32 -2 5 C-1 1 -1 1 0 0 Z " fill="#13B396" transform="translate(800,159)"/>
<path d="M0 0 C0.66 0 1.32 0 2 0 C2.33 1.98 2.66 3.96 3 6 C2.01 6.33 1.02 6.66 0 7 C-0.66 7.66 -1.32 8.32 -2 9 C-3 6 -3 6 -1.5625 2.8125 C-1.046875 1.884375 -0.53125 0.95625 0 0 Z " fill="#22B999" transform="translate(96,125)"/>
<path d="M0 0 C3.7952131 1.49097658 5.61042731 3.75700849 8 7 C5.03 6.505 5.03 6.505 2 6 C2 5.34 2 4.68 2 4 C1.01 3.34 0.02 2.68 -1 2 C-0.67 1.34 -0.34 0.68 0 0 Z " fill="#37B296" transform="translate(101,135)"/>
<path d="M0 0 C0.99 0 1.98 0 3 0 C3 2.64 3 5.28 3 8 C2.01 8.33 1.02 8.66 0 9 C0 6.03 0 3.06 0 0 Z " fill="#3B9C89" transform="translate(126,123)"/>
<path d="M0 0 C4.95 0.99 4.95 0.99 10 2 C9.34 2.66 8.68 3.32 8 4 C4.375 3.625 4.375 3.625 1 3 C0.67 2.01 0.34 1.02 0 0 Z " fill="#777E87" transform="translate(169,180)"/>
<path d="M0 0 C0.66 0.66 1.32 1.32 2 2 C0.8125 4.4375 0.8125 4.4375 -1 7 C-3.6875 7.8125 -3.6875 7.8125 -6 8 C-4.02 5.36 -2.04 2.72 0 0 Z " fill="#8D939B" transform="translate(214,138)"/>
<path d="M0 0 C0.99 0.33 1.98 0.66 3 1 C3.75 2.9375 3.75 2.9375 4 5 C3.67 5.66 3.34 6.32 3 7 C1.68 6.34 0.36 5.68 -1 5 C-0.67 3.35 -0.34 1.7 0 0 Z " fill="#17B898" transform="translate(795,135)"/>
<path d="M0 0 C0.99 0.99 1.98 1.98 3 3 C2.01 3.495 2.01 3.495 1 4 C1 4.66 1 5.32 1 6 C0.01 6 -0.98 6 -2 6 C-1.125 1.125 -1.125 1.125 0 0 Z " fill="#27C19D" transform="translate(103,118)"/>
<path d="M0 0 C0.33 1.98 0.66 3.96 1 6 C-1.66666667 4.66666667 -4.33333333 3.33333333 -7 2 C-4.35261084 0.5393715 -3.10551666 0 0 0 Z " fill="#28AB91" transform="translate(710,115)"/>
<path d="M0 0 C1.32 0.66 2.64 1.32 4 2 C1.66785852 3.20628008 -0.49642139 4.1654738 -3 5 C-1.125 1.125 -1.125 1.125 0 0 Z " fill="#636A82" transform="translate(140,172)"/>
<path d="M0 0 C0.33 0 0.66 0 1 0 C1.625 3.375 1.625 3.375 2 7 C1.34 7.66 0.68 8.32 0 9 C-2.125 8.625 -2.125 8.625 -4 8 C-3.525625 7.608125 -3.05125 7.21625 -2.5625 6.8125 C-0.64820367 4.59191626 -0.38733012 2.86624291 0 0 Z " fill="#2F9C87" transform="translate(711,146)"/>
<path d="M0 0 C3.375 0.25 3.375 0.25 7 1 C7.66 2.32 8.32 3.64 9 5 C4.545 3.02 4.545 3.02 0 1 C0 0.67 0 0.34 0 0 Z " fill="#969DA7" transform="translate(206,132)"/>
<path d="M0 0 C2.97 0.495 2.97 0.495 6 1 C3.64046906 3.35953094 2.22104383 3.49141413 -1 4 C-0.67 2.68 -0.34 1.36 0 0 Z " fill="#29A389" transform="translate(695,129)"/>
<path d="M0 0 C0 0.66 0 1.32 0 2 C-1.62626404 3.38232443 -3.2925002 4.71937515 -5 6 C-5.33 5.01 -5.66 4.02 -6 3 C-3.375 0 -3.375 0 0 0 Z " fill="#1AB593" transform="translate(733,108)"/>
<path d="M0 0 C0.99 0.495 0.99 0.495 2 1 C2 2.32 2 3.64 2 5 C1.34 5 0.68 5 0 5 C0 3.35 0 1.7 0 0 Z " fill="#6E8D90" transform="translate(741,158)"/>
</svg>
